<?xml version="1.0" encoding="iso-8859-1"?>
<!-- Generator: Adobe Illustrator 19.0.0, SVG Export Plug-In . SVG Version: 6.00 Build 0)  -->
<svg version="1.1" id="Capa_1" xmlns="http://www.w3.org/2000/svg" xmlns:xlink="http://www.w3.org/1999/xlink" x="0px" y="0px"
	 viewBox="0 0 452.879 452.879" style="enable-background:new 0 0 452.879 452.879;" xml:space="preserve">
<g>
	<g>
		<polygon points="41.493,434.661 41.574,443.701 41.574,434.661 		"/>
	</g>
</g>
<g>
	<g>
		<path d="M417.254,17.542c4.661-1.878,6.918-7.179,5.04-11.84c-1.878-4.661-7.179-6.918-11.84-5.04c-56,22.08-69.44,74.88-72.56,96
			c-20.534,0.652-40.011,9.258-54.32,24c-14.788,14.839-22.904,35.055-22.48,56c0.48,32-6.56,76.48-66,141.12
			c-38.32,41.12-96.64,76.24-131.36,97.12c-30.32,18.24-35.76,21.52-33.28,30.48c1.468,4.843,6.166,7.964,11.2,7.44
			c46.16,0,162.56-6.96,245.6-71.6c84.4-65.68,132.8-140.56,132.8-205.52c-0.016-3.641-0.284-7.276-0.8-10.88
			c-4.717-33.311-29.906-60.039-62.88-66.72C359.254,79.781,371.174,35.701,417.254,17.542z M276.054,366.901
			c-66.16,51.44-155.68,64-208.8,67.04l5.84-3.52c35.6-21.44,95.28-57.36,136-101.28c64-69.28,71.36-118.48,70.8-153.68
			c0-1.04,0-2.08,0-3.12c13.2,2.64,28.08,8,31.2,13.6c2.288,4.438,7.74,6.181,12.177,3.893c0.625-0.322,1.209-0.716,1.743-1.173
			c8.369-6.966,17.759-12.605,27.84-16.72c6.874,5.249,12.185,12.275,15.36,20.32c0.888,3.106,3.353,5.51,6.48,6.32
			c0.743,0.097,1.496,0.097,2.24,0c2.476-0.004,4.844-1.015,6.56-2.8c5.599-5.728,11.764-10.874,18.4-15.36
			C398.934,238.422,352.534,307.461,276.054,366.901z M383.466,131.906c8.13,7.989,13.873,18.085,16.587,29.156
			c-7.412,3.755-14.32,8.432-20.56,13.92c-5.422-7.99-12.221-14.951-20.08-20.56c-2.195-1.515-4.947-1.984-7.52-1.28
			c-11.489,3.5-22.306,8.909-32,16c-10.965-7.738-23.6-12.781-36.88-14.72c2.928-8.16,7.596-15.585,13.68-21.76
			C320.446,108.491,359.296,108.153,383.466,131.906z"/>
	</g>
</g>
<g>
</g>
<g>
</g>
<g>
</g>
<g>
</g>
<g>
</g>
<g>
</g>
<g>
</g>
<g>
</g>
<g>
</g>
<g>
</g>
<g>
</g>
<g>
</g>
<g>
</g>
<g>
</g>
<g>
</g>
</svg>
