<?xml version="1.0" encoding="iso-8859-1"?>
<!-- Generator: Adobe Illustrator 19.0.0, SVG Export Plug-In . SVG Version: 6.00 Build 0)  -->
<svg version="1.1" id="Capa_1" xmlns="http://www.w3.org/2000/svg" xmlns:xlink="http://www.w3.org/1999/xlink" x="0px" y="0px"
	 viewBox="0 0 512.002 512.002" style="enable-background:new 0 0 512.002 512.002;" xml:space="preserve">
<g>
	<g>
		<path d="M346.695,333.066c0.537-4.922,17.829-14.649,17.829-27.617c0-12.979-17.29-22.678-17.829-27.614
			c-0.604-5.529,14.175-18.83,11.361-31.371c-2.848-12.697-21.856-17.795-23.429-22.291c-1.832-5.235,9.52-22,3.863-33.484
			c-4.505-9.149-16.031-10.444-23.779-13.147c-3.913-1.365-8.189,0.7-9.553,4.611c-1.365,3.911,0.699,8.189,4.61,9.553
			c4.849,1.693,14.376,3.809,15.259,5.602c0.671,1.619-1.284,7.712-2.334,10.984c-6.133,19.1-3.995,25.011,12.31,34.924
			c2.812,1.709,8.047,4.892,8.414,6.531c0.343,1.654-2.949,7.066-4.717,9.974c-10.427,17.142-9.43,23.402,3.969,36.972
			c2.563,2.595,6.854,6.938,6.854,8.758s-4.289,6.162-6.854,8.758c-13.423,13.594-14.375,19.865-3.969,36.971
			c1.769,2.907,5.061,8.32,4.718,9.974c-0.368,1.641-5.602,4.823-8.415,6.534c-16.293,9.906-18.447,15.806-12.31,34.925
			c1.05,3.272,3.005,9.365,2.339,10.975c-1.063,2.157-12.708,4.152-18.986,7.112c-3.747,1.766-5.353,6.234-3.587,9.982
			c1.765,3.748,6.236,5.353,9.982,3.587c7.12-3.354,21.02-3.846,26.048-14.052c5.657-11.483-5.689-28.265-3.862-33.487
			c0.559-1.596,5.323-4.492,8.171-6.224c6.324-3.846,13.494-8.205,15.259-16.066C360.866,351.914,346.096,338.543,346.695,333.066z"
			/>
	</g>
</g>
<g>
	<g>
		<path d="M212.047,420.696c-6.268-2.954-17.926-4.96-18.981-7.103c-0.671-1.619,1.284-7.712,2.334-10.984
			c2.239-6.976,4.554-14.189,2.227-20.839c-2.333-6.666-8.816-10.608-14.536-14.086c-2.812-1.71-8.046-4.892-8.414-6.532
			c-0.343-1.654,2.949-7.067,4.718-9.976c10.427-17.139,9.427-23.402-3.97-36.97c-2.563-2.595-6.854-6.939-6.854-8.758
			c0-1.819,4.289-6.162,6.854-8.758c13.425-13.596,14.373-19.867,3.97-36.972c-1.769-2.907-5.061-8.319-4.718-9.974
			c0.367-1.64,5.602-4.822,8.414-6.531c16.318-9.922,18.436-15.842,12.31-34.924c-1.05-3.272-3.005-9.365-2.338-10.976
			c0.888-1.804,10.405-3.914,15.263-5.61c3.911-1.364,5.977-5.641,4.61-9.553c-1.364-3.91-5.641-5.976-9.553-4.611
			c-7.748,2.703-19.273,3.998-23.778,13.146c-5.657,11.483,5.689,28.263,3.862,33.485c-1.564,4.471-20.582,9.603-23.429,22.291
			c-2.809,12.522,11.96,25.896,11.361,31.371c-0.537,4.919-17.829,14.646-17.829,27.614c0,12.979,17.29,22.678,17.829,27.614
			c0.605,5.529-14.177,18.819-11.361,31.371c2.854,12.724,21.844,17.764,23.429,22.291c1.826,5.225-9.521,22.008-3.864,33.49
			c5.028,10.206,18.931,10.7,26.048,14.052C214.724,438.544,220.91,424.872,212.047,420.696z"/>
	</g>
</g>
<g>
	<g>
		<path d="M430.757,340.712c-1.684-2.565-4.817-7.343-4.697-8.905c0.021-0.095,0.259-0.986,2.273-3.175
			c2.806-3.048,2.609-7.793-0.438-10.599c-3.048-2.807-7.794-2.608-10.599,0.438c-2.348,2.551-5.537,6.521-6.13,11.547
			c-1.332,11.323,11.41,22.666,11.637,27.448c-2.209,4.222-18.908,8.42-22.896,18.98c-4.014,10.63,5.539,24.712,4.582,29.407
			c-3.218,3.51-20.359,3.379-26.904,12.529c-6.576,9.191-1.092,25.216-3.241,29.504c-4.064,2.44-20.417-2.305-29.22,4.582
			c-8.826,6.905-8.248,23.72-11.55,27.203c-1.655,0.356-6.76-1.409-9.532-2.366c-18.05-6.227-23.578-3.744-33.202,11.785
			c-1.555,2.507-4.412,7.118-5.933,7.897c-4.764-0.761-14.684-14.085-25.861-14.085c-11.199,0-21.091,13.323-25.862,14.085
			c-4.311-2.21-9.062-18.215-19.571-21.968c-10.39-3.706-24.581,5.621-29.096,4.65c-3.311-3.493-2.711-20.289-11.548-27.203
			c-8.731-6.828-25.604-2.225-29.207-4.555c-2.203-4.188,3.354-20.294-3.254-29.531c-6.478-9.056-24.07-9.229-26.898-12.503
			c-1.027-4.635,8.614-18.739,4.577-29.433c-3.966-10.504-20.977-15.017-22.897-18.957c0.15-4.73,12.973-16.115,11.637-27.472
			c-1.312-11.157-16.788-19.555-17.726-23.968c0.936-4.404,16.415-12.819,17.726-23.968c1.332-11.322-11.411-22.666-11.637-27.447
			c2.208-4.223,18.908-8.42,22.896-18.98c4.011-10.624-5.537-24.731-4.581-29.408c3.122-3.404,20.406-3.444,26.903-12.529
			c6.578-9.194,1.091-25.212,3.241-29.504c4.068-2.441,20.417,2.304,29.22-4.581c8.825-6.904,8.248-23.719,11.55-27.204
			c4.65-0.978,18.62,8.389,29.095,4.65c10.556-3.768,15.237-19.747,19.572-21.967c2.112,0.338,7.735,5.179,10.983,7.645
			c13.177,9.999,20.068,7.739,32.702-2.306c2.403-1.911,6.381-5.073,8.039-5.338c4.283,2.194,9.088,18.224,19.571,21.967
			c10.494,3.746,24.385-5.627,29.096-4.65c1.157,1.221,2.315,6.249,3.015,9.284c4.261,18.483,9.225,22.189,27.86,21.803
			c3.004-0.06,8.57-0.174,9.88,0.672c0.766,1.455,0.414,6.629,0.202,9.744c-1.302,19.17,2.56,24.142,20.602,28.904
			c2.917,0.77,8.32,2.195,9.35,3.387c1.021,4.618-8.604,18.769-4.576,29.431c2.407,6.378,8.932,10.056,14.687,13.299
			c2.635,1.485,7.515,4.235,8.209,5.66c-0.15,4.727-12.973,16.116-11.637,27.473c0.593,5.024,3.783,8.996,6.132,11.546
			c2.806,3.046,7.552,3.241,10.599,0.436c3.047-2.805,3.242-7.552,0.436-10.599c-2.047-2.223-2.265-3.133-2.268-3.133
			c-0.376-4.789,14.267-17.104,11.34-29.205c-2.959-12.226-21.388-16.474-23.461-20.771c-1.511-4.554,9.666-20.138,3.818-31.139
			c-5.916-11.132-24.886-10.575-27.973-14.225c-2.64-4.017,4.07-22.051-4.543-31.113c-8.71-9.167-26.904-3.37-30.873-6.062
			c-3.703-3.147-2.451-22.376-13.487-28.518c-6.863-3.816-14.763-1.093-21.734,1.312c-2.836,0.978-8.121,2.797-9.618,2.341
			c-1.455-0.609-4.263-5.141-5.941-7.849c-3.906-6.305-8.336-13.449-16.135-14.804c-1.14-0.198-2.251-0.237-3.341-0.171
			c2.957-5.442,6.097-10.684,9.429-15.671c2.301-3.444,1.374-8.103-2.07-10.403c-3.445-2.303-8.103-1.374-10.403,2.07
			c-7.596,11.37-14.312,23.889-19.981,37.24c-1.918,1.07-2.134,1.14-4.248-0.087c7.297-44.451,23.709-79.312,33.044-96.44
			c0.681-1.248,1.782-1.642,2.379-1.765c2.195-0.458,1.161-0.679,26.428,19.036c0.037,0.029,0.078,0.062,0.079,0.162
			c0,0-7.515,6.208-14.492,13.278c-2.909,2.949-2.877,7.698,0.071,10.607c2.946,2.909,7.696,2.878,10.607-0.07
			c4.228-4.285,8.682-8.342,13.235-12.056c3.596-2.932,5.629-7.278,5.578-11.921c-0.05-4.653-2.183-8.964-5.851-11.827
			L304.394,3.928c-9.023-7.039-22.203-4.311-27.679,5.733c-9.272,17.01-25.189,50.693-33.36,93.786
			c-3.87-2.375-8.077-3.95-12.718-3.144c-12.51,2.172-17.633,20.79-22.061,22.646c-1.523,0.47-6.798-1.356-9.634-2.334
			c-6.97-2.405-14.868-5.131-21.734-1.312c-11.053,6.149-9.793,25.374-13.471,28.504c-4.006,2.722-22.195-3.078-30.892,6.074
			c-8.65,9.105-1.894,27.077-4.525,31.091c-3.09,3.662-22.102,3.164-27.99,14.248c-5.856,11.02,5.324,26.596,3.831,31.11
			c-2.074,4.31-20.527,8.628-23.475,20.8c-2.916,12.055,11.707,24.473,11.347,29.168c-1.005,4.676-17.842,13.244-17.842,25.753
			c0,12.507,16.84,21.115,17.836,25.716c0.373,4.755-14.257,17.146-11.34,29.206c2.959,12.226,21.389,16.472,23.462,20.769
			c1.513,4.564-9.669,20.134-3.819,31.141c5.916,11.132,24.883,10.571,27.973,14.225c2.641,4.02-4.077,22.044,4.543,31.113
			c8.699,9.157,26.905,3.38,30.873,6.061c3.678,3.126,2.48,22.393,13.488,28.519c11.052,6.145,26.753-5.054,31.35-3.653
			c4.492,1.881,9.546,20.476,22.078,22.652c12.475,2.161,23.564-13.834,28.41-13.893c4.856,0.059,15.934,16.049,28.409,13.893
			c12.576-2.184,17.582-20.767,22.061-22.646c1.521-0.46,6.798,1.356,9.635,2.335c6.969,2.405,14.871,5.131,21.733,1.312
			c6.809-3.788,8.677-11.891,10.324-19.038c0.681-2.951,1.946-8.444,3.146-9.466c1.303-0.884,6.615-0.775,9.79-0.71
			c7.36,0.148,15.699,0.32,21.103-5.364c8.65-9.104,1.894-27.077,4.525-31.091c3.091-3.661,22.102-3.164,27.99-14.248
			c5.839-10.986-5.314-26.612-3.831-31.109c2.076-4.313,20.528-8.63,23.476-20.804C439.196,353.573,434.713,346.741,430.757,340.712
			z"/>
	</g>
</g>
<g>
</g>
<g>
</g>
<g>
</g>
<g>
</g>
<g>
</g>
<g>
</g>
<g>
</g>
<g>
</g>
<g>
</g>
<g>
</g>
<g>
</g>
<g>
</g>
<g>
</g>
<g>
</g>
<g>
</g>
</svg>
